<?xml version="1.0" encoding="UTF-8"?>
<!DOCTYPE svg PUBLIC "-//W3C//DTD SVG 1.1//EN" "http://www.w3.org/Graphics/SVG/1.1/DTD/svg11.dtd">
<svg xmlns="http://www.w3.org/2000/svg" version="1.1" width="200px" height="200px" style="shape-rendering:geometricPrecision; text-rendering:geometricPrecision; image-rendering:optimizeQuality; fill-rule:evenodd; clip-rule:evenodd" xmlns:xlink="http://www.w3.org/1999/xlink">
<g><path style="opacity:0.993" fill="#76c9d1" d="M 87.5,2.5 C 115.471,4.51126 136.471,17.5113 150.5,41.5C 152.785,46.1831 154.785,51.0164 156.5,56C 156.355,56.772 156.022,57.4387 155.5,58C 141.504,58.4999 127.504,58.6666 113.5,58.5C 113.81,55.2869 113.477,52.2869 112.5,49.5C 109.038,48.5184 105.371,48.185 101.5,48.5C 101.768,46.901 101.434,45.5676 100.5,44.5C 99.1996,37.1995 94.8662,32.8662 87.5,31.5C 87.5,21.8333 87.5,12.1667 87.5,2.5 Z"/></g>
<g><path style="opacity:1" fill="#6db5bd" d="M 87.5,2.5 C 87.5,12.1667 87.5,21.8333 87.5,31.5C 85.5,31.5 83.5,31.5 81.5,31.5C 81.5,22.5 81.5,13.5 81.5,4.5C 52.1122,10.3796 32.4456,27.5463 22.5,56C 22.6448,56.772 22.9781,57.4387 23.5,58C 38.1629,58.4999 52.8295,58.6666 67.5,58.5C 69.099,58.2322 70.4324,58.5655 71.5,59.5C 58.8333,59.5 46.1667,59.5 33.5,59.5C 27.1667,59.5 20.8333,59.5 14.5,59.5C 13.3734,58.8783 12.3734,58.045 11.5,57C 24.1462,21.1927 49.4795,3.02607 87.5,2.5 Z"/></g>
<g><path style="opacity:1" fill="#75c8d1" d="M 81.5,31.5 C 74.8231,32.9984 70.4898,36.9984 68.5,43.5C 67.5128,48.3054 67.1795,53.3054 67.5,58.5C 52.8295,58.6666 38.1629,58.4999 23.5,58C 22.9781,57.4387 22.6448,56.772 22.5,56C 32.4456,27.5463 52.1122,10.3796 81.5,4.5C 81.5,13.5 81.5,22.5 81.5,31.5 Z"/></g>
<g><path style="opacity:1" fill="#9a7f74" d="M 81.5,31.5 C 83.5,31.5 85.5,31.5 87.5,31.5C 94.8662,32.8662 99.1996,37.1995 100.5,44.5C 100.5,45.5 100.5,46.5 100.5,47.5C 89.8333,47.5 79.1667,47.5 68.5,47.5C 68.5,46.1667 68.5,44.8333 68.5,43.5C 70.4898,36.9984 74.8231,32.9984 81.5,31.5 Z"/></g>
<g><path style="opacity:1" fill="#60a2a9" d="M 150.5,41.5 C 164.171,41.3334 177.837,41.5001 191.5,42C 194.778,42.4506 197.444,43.9506 199.5,46.5C 199.5,49.1667 199.5,51.8333 199.5,54.5C 197.968,56.5207 195.968,58.0207 193.5,59C 180.504,59.4999 167.504,59.6666 154.5,59.5C 148.167,59.5 141.833,59.5 135.5,59.5C 127.833,59.5 120.167,59.5 112.5,59.5C 112.5,56.1667 112.5,52.8333 112.5,49.5C 113.477,52.2869 113.81,55.2869 113.5,58.5C 127.504,58.6666 141.504,58.4999 155.5,58C 156.022,57.4387 156.355,56.772 156.5,56C 154.785,51.0164 152.785,46.1831 150.5,41.5 Z"/></g>
<g><path style="opacity:1" fill="#65a0a6" d="M 68.5,43.5 C 68.5,44.8333 68.5,46.1667 68.5,47.5C 79.1667,47.5 89.8333,47.5 100.5,47.5C 100.5,46.5 100.5,45.5 100.5,44.5C 101.434,45.5676 101.768,46.901 101.5,48.5C 100.518,51.9619 100.185,55.6286 100.5,59.5C 95.8333,59.5 91.1667,59.5 86.5,59.5C 81.8333,59.5 77.1667,59.5 72.5,59.5C 72.1667,59.5 71.8333,59.5 71.5,59.5C 70.4324,58.5655 69.099,58.2322 67.5,58.5C 67.1795,53.3054 67.5128,48.3054 68.5,43.5 Z"/></g>
<g><path style="opacity:1" fill="#fbfcfc" d="M 101.5,48.5 C 105.371,48.185 109.038,48.5184 112.5,49.5C 112.5,52.8333 112.5,56.1667 112.5,59.5C 108.5,59.5 104.5,59.5 100.5,59.5C 100.185,55.6286 100.518,51.9619 101.5,48.5 Z"/></g>
<g><path style="opacity:1" fill="#96796f" d="M 14.5,59.5 C 20.8333,59.5 27.1667,59.5 33.5,59.5C 31.4942,64.8546 28.4942,69.5213 24.5,73.5C 21.3025,76.0114 17.6358,77.3447 13.5,77.5C 13.5,75.1667 13.5,72.8333 13.5,70.5C 13.5,68.5 13.5,66.5 13.5,64.5C 14.038,62.8828 14.3713,61.2161 14.5,59.5 Z"/></g>
<g><path style="opacity:1" fill="#edc3aa" d="M 86.5,59.5 C 91.1667,59.5 95.8333,59.5 100.5,59.5C 104.5,59.5 108.5,59.5 112.5,59.5C 120.167,59.5 127.833,59.5 135.5,59.5C 136.167,61.5 136.833,63.5 137.5,65.5C 119.577,64.514 101.577,64.1807 83.5,64.5C 84.7515,62.9991 85.7515,61.3325 86.5,59.5 Z"/></g>
<g><path style="opacity:0.976" fill="#fed4b7" d="M 13.5,64.5 C 13.5,66.5 13.5,68.5 13.5,70.5C 12.5243,77.6699 12.5243,85.0033 13.5,92.5C 7.25395,91.9146 2.58728,88.9146 -0.5,83.5C -0.5,79.8333 -0.5,76.1667 -0.5,72.5C 2.63536,67.2627 7.30202,64.596 13.5,64.5 Z"/></g>
<g><path style="opacity:0.997" fill="#fdd3b7" d="M 33.5,59.5 C 46.1667,59.5 58.8333,59.5 71.5,59.5C 71.8333,59.5 72.1667,59.5 72.5,59.5C 72.577,63.7939 73.2436,67.9605 74.5,72C 75.5,72.6667 76.5,72.6667 77.5,72C 79.364,69.3123 81.364,66.8123 83.5,64.5C 101.577,64.1807 119.577,64.514 137.5,65.5C 140.48,69.2546 143.813,72.7546 147.5,76C 150.014,77.2525 152.68,77.7525 155.5,77.5C 155.563,72.7971 155.229,68.1304 154.5,63.5C 165.605,65.0426 170.438,71.3759 169,82.5C 166.292,88.525 161.626,91.8583 155,92.5C 151.858,106.46 145.358,118.46 135.5,128.5C 103.108,146.949 72.7743,144.116 44.5,120C 31.9309,107.029 25.2642,91.5294 24.5,73.5C 28.4942,69.5213 31.4942,64.8546 33.5,59.5 Z"/></g>
<g><path style="opacity:1" fill="#9b7d72" d="M 72.5,59.5 C 77.1667,59.5 81.8333,59.5 86.5,59.5C 85.7515,61.3325 84.7515,62.9991 83.5,64.5C 81.364,66.8123 79.364,69.3123 77.5,72C 76.5,72.6667 75.5,72.6667 74.5,72C 73.2436,67.9605 72.577,63.7939 72.5,59.5 Z"/></g>
<g><path style="opacity:1" fill="#9b7d72" d="M 135.5,59.5 C 141.833,59.5 148.167,59.5 154.5,59.5C 154.5,60.8333 154.5,62.1667 154.5,63.5C 155.229,68.1304 155.563,72.7971 155.5,77.5C 152.68,77.7525 150.014,77.2525 147.5,76C 143.813,72.7546 140.48,69.2546 137.5,65.5C 136.833,63.5 136.167,61.5 135.5,59.5 Z"/></g>
<g><path style="opacity:1" fill="#4a5058" d="M 46.5,68.5 C 47.8221,68.33 48.9887,68.6634 50,69.5C 50.4986,73.1516 50.6653,76.8183 50.5,80.5C 48.8561,80.7135 47.3561,80.3802 46,79.5C 45.2446,75.7446 45.4113,72.0779 46.5,68.5 Z"/></g>
<g><path style="opacity:1" fill="#51555c" d="M 118.5,68.5 C 120.144,68.2865 121.644,68.6198 123,69.5C 123.789,73.0915 123.622,76.5915 122.5,80C 120.888,80.7203 119.388,80.5536 118,79.5C 117.245,75.7446 117.411,72.0779 118.5,68.5 Z"/></g>
<g><path style="opacity:0.996" fill="#eec4aa" d="M 13.5,70.5 C 13.5,72.8333 13.5,75.1667 13.5,77.5C 17.6358,77.3447 21.3025,76.0114 24.5,73.5C 25.2642,91.5294 31.9309,107.029 44.5,120C 72.7743,144.116 103.108,146.949 135.5,128.5C 130.711,133.952 125.045,138.285 118.5,141.5C 95.7878,152.11 73.1211,152.11 50.5,141.5C 30.9977,130.654 18.6644,114.321 13.5,92.5C 12.5243,85.0033 12.5243,77.6699 13.5,70.5 Z"/></g>
<g><path style="opacity:1" fill="#51555c" d="M 71.5,87.5 C 80.5,87.5 89.5,87.5 98.5,87.5C 98.0714,96.0981 93.5714,101.098 85,102.5C 77.3943,101.46 72.561,97.2937 70.5,90C 70.7432,89.0979 71.0766,88.2646 71.5,87.5 Z"/></g>
<g><path style="opacity:0.998" fill="#e09a56" d="M 50.5,141.5 C 73.1211,152.11 95.7878,152.11 118.5,141.5C 119.471,143.483 120.471,145.483 121.5,147.5C 96.7584,160.646 72.0918,160.646 47.5,147.5C 48.4706,145.517 49.4706,143.517 50.5,141.5 Z"/></g>
<g><path style="opacity:0.992" fill="#faaa5f" d="M 47.5,147.5 C 72.0918,160.646 96.7584,160.646 121.5,147.5C 123.06,149.954 124.06,152.62 124.5,155.5C 124.312,157.103 124.812,158.437 126,159.5C 126.5,169.161 126.666,178.828 126.5,188.5C 124.35,190.922 124.017,193.589 125.5,196.5C 125.167,196.5 124.833,196.5 124.5,196.5C 96.5,196.5 68.5,196.5 40.5,196.5C 40.0618,196.565 39.7284,196.399 39.5,196C 42.8333,192.667 46.1667,189.333 49.5,186C 46.9614,183.63 44.6281,181.13 42.5,178.5C 42.2743,171.124 42.6076,163.791 43.5,156.5C 44.0846,153.152 45.418,150.152 47.5,147.5 Z"/></g>
<g><path style="opacity:0.674" fill="#563d2b" d="M 32.5,167.5 C 31.9717,168.847 31.805,170.181 32,171.5C 36.1487,172.808 39.6487,175.141 42.5,178.5C 44.6281,181.13 46.9614,183.63 49.5,186C 46.1667,189.333 42.8333,192.667 39.5,196C 39.7284,196.399 40.0618,196.565 40.5,196.5C 39.8333,197.5 39.1667,198.5 38.5,199.5C 37.5,199.5 36.5,199.5 35.5,199.5C 34.8333,198.5 34.1667,197.5 33.5,196.5C 33.9382,196.565 34.2716,196.399 34.5,196C 32.6667,194.167 30.8333,192.333 29,190.5C 28.6012,190.728 28.4346,191.062 28.5,191.5C 24.823,189.651 22.9897,186.651 23,182.5C 21.6015,181.949 20.2682,181.616 19,181.5C 16.9833,178.873 17.1499,176.373 19.5,174C 14.8993,168.561 9.56598,164.061 3.5,160.5C -0.965343,155.796 -0.298677,152.129 5.5,149.5C 10.7979,150.965 14.2979,154.298 16,159.5C 19,162.5 22,165.5 25,168.5C 27.2876,166.344 29.7876,166.01 32.5,167.5 Z"/></g>
<g><path style="opacity:0.851" fill="#82c5ee" d="M 165.5,178.5 C 157.833,171.5 150.5,164.167 143.5,156.5C 148.754,149.291 155.087,147.957 162.5,152.5C 159.876,155.567 158.042,158.9 157,162.5C 158.019,163.687 159.186,164.687 160.5,165.5C 163.5,163.5 166.5,161.5 169.5,159.5C 174.043,166.913 172.709,173.246 165.5,178.5 Z"/></g>
<g><path style="opacity:0.796" fill="#bbb4ad" d="M 4.5,153.5 C 8.75376,154.585 11.5871,157.252 13,161.5C 16,164.5 19,167.5 22,170.5C 22.6667,171.167 22.6667,171.833 22,172.5C 17.2338,166.895 11.7338,162.228 5.5,158.5C 4.69063,156.929 4.35729,155.262 4.5,153.5 Z"/></g>
<g><path style="opacity:0.98" fill="#c6884b" d="M 43.5,156.5 C 42.6076,163.791 42.2743,171.124 42.5,178.5C 39.6487,175.141 36.1487,172.808 32,171.5C 31.805,170.181 31.9717,168.847 32.5,167.5C 35.1605,162.839 38.8272,159.173 43.5,156.5 Z"/></g>
<g><path style="opacity:0.982" fill="#ca8c51" d="M 124.5,155.5 C 131.657,160.155 136.657,166.488 139.5,174.5C 139.5,175.167 139.5,175.833 139.5,176.5C 135.167,180.5 130.833,184.5 126.5,188.5C 126.666,178.828 126.5,169.161 126,159.5C 124.812,158.437 124.312,157.103 124.5,155.5 Z"/></g>
<g><path style="opacity:1" fill="#499fd2" d="M 143.5,156.5 C 150.5,164.167 157.833,171.5 165.5,178.5C 164.22,179.931 162.553,180.598 160.5,180.5C 154.5,173.833 148.167,167.5 141.5,161.5C 141.796,159.597 142.463,157.93 143.5,156.5 Z"/></g>
<g><path style="opacity:1" fill="#fffcfb" d="M 81.5,160.5 C 93.7477,160.912 97.9144,166.912 94,178.5C 88.0439,184.528 81.8773,184.862 75.5,179.5C 71.3418,171.002 73.3418,164.669 81.5,160.5 Z"/></g>
<g><path style="opacity:0.895" fill="#82c5ee" d="M 141.5,161.5 C 148.167,167.5 154.5,173.833 160.5,180.5C 157.098,180.658 153.764,180.324 150.5,179.5C 148.833,175.833 146.167,173.167 142.5,171.5C 141.676,168.236 141.342,164.902 141.5,161.5 Z"/></g>
<g><path style="opacity:0.986" fill="#e9be57" d="M 30.5,173.5 C 30.4142,174.496 30.7476,175.329 31.5,176C 33.1667,176.333 34.8333,176.667 36.5,177C 38.4412,179.454 40.7746,181.287 43.5,182.5C 45.9137,183.406 46.747,185.072 46,187.5C 43.5,190 41,192.5 38.5,195C 37.5,195.667 36.5,195.667 35.5,195C 32.6667,192.167 29.8333,189.333 27,186.5C 27.0871,181.923 24.9205,179.089 20.5,178C 23,175.5 25.5,173 28,170.5C 28.8518,171.571 29.6851,172.571 30.5,173.5 Z"/></g>
<g><path style="opacity:1" fill="#b67e46" d="M 30.5,173.5 C 36.1511,174.467 40.4844,177.467 43.5,182.5C 40.7746,181.287 38.4412,179.454 36.5,177C 34.8333,176.667 33.1667,176.333 31.5,176C 30.7476,175.329 30.4142,174.496 30.5,173.5 Z"/></g>
<g><path style="opacity:1" fill="#baad90" d="M 139.5,176.5 C 141.63,178.127 143.63,179.96 145.5,182C 143.719,184.04 141.719,184.54 139.5,183.5C 138.859,182.518 138.193,181.518 137.5,180.5C 138.63,179.378 139.297,178.044 139.5,176.5 Z"/></g>
<g><path style="opacity:1" fill="#4b98c9" d="M 139.5,176.5 C 139.297,178.044 138.63,179.378 137.5,180.5C 138.193,181.518 138.859,182.518 139.5,183.5C 136.167,186.5 132.833,189.5 129.5,192.5C 128.167,192.5 127.5,193.167 127.5,194.5C 127.167,195.5 126.5,196.167 125.5,196.5C 124.017,193.589 124.35,190.922 126.5,188.5C 130.833,184.5 135.167,180.5 139.5,176.5 Z"/></g>
<g><path style="opacity:1" fill="#644830" d="M 42.5,187.5 C 40.9382,187.267 39.6049,186.6 38.5,185.5C 37.5423,184.038 36.3756,182.705 35,181.5C 34.3123,180.668 34.479,180.002 35.5,179.5C 38.5954,181.589 40.9287,184.256 42.5,187.5 Z"/></g>
<g><path style="opacity:0.944" fill="#2882c0" d="M 142.5,171.5 C 146.167,173.167 148.833,175.833 150.5,179.5C 147.167,182.5 143.833,185.5 140.5,188.5C 137.5,190.833 134.833,193.5 132.5,196.5C 129.91,199.059 127.243,199.059 124.5,196.5C 124.833,196.5 125.167,196.5 125.5,196.5C 126.5,196.167 127.167,195.5 127.5,194.5C 128.833,194.5 129.5,193.833 129.5,192.5C 132.833,189.5 136.167,186.5 139.5,183.5C 141.719,184.54 143.719,184.04 145.5,182C 143.63,179.96 141.63,178.127 139.5,176.5C 139.5,175.833 139.5,175.167 139.5,174.5C 140.833,173.833 141.833,172.833 142.5,171.5 Z"/></g>
<g><path style="opacity:1" fill="#f7cba5" d="M 38.5,185.5 C 39.6049,186.6 40.9382,187.267 42.5,187.5C 42.2172,188.289 41.7172,188.956 41,189.5C 39.8333,188.333 38.6667,187.167 37.5,186C 37.7284,185.601 38.0618,185.435 38.5,185.5 Z"/></g>
<g><path style="opacity:1" fill="#e9c1a3" d="M 30.5,185.5 C 32.9024,187.909 35.5691,189.909 38.5,191.5C 38.4827,193.028 37.816,193.528 36.5,193C 33.8823,190.894 31.8823,188.394 30.5,185.5 Z"/></g>
<g><path style="opacity:1" fill="#664b30" d="M 38.5,191.5 C 35.5691,189.909 32.9024,187.909 30.5,185.5C 30.5173,183.972 31.184,183.472 32.5,184C 35.1177,186.106 37.1177,188.606 38.5,191.5 Z"/></g>
<g><path style="opacity:0.959" fill="#f3cab2" d="M 140.5,188.5 C 142.167,195.5 139.5,198.167 132.5,196.5C 134.833,193.5 137.5,190.833 140.5,188.5 Z"/></g>
<g><path style="opacity:1" fill="#e5bb9f" d="M 33.5,196.5 C 29.5,197.167 27.8333,195.5 28.5,191.5C 28.4346,191.062 28.6012,190.728 29,190.5C 30.8333,192.333 32.6667,194.167 34.5,196C 34.2716,196.399 33.9382,196.565 33.5,196.5 Z"/></g>
<g><path style="opacity:1" fill="#393736" d="M 129.5,192.5 C 129.5,193.833 128.833,194.5 127.5,194.5C 127.5,193.167 128.167,192.5 129.5,192.5 Z"/></g>
</svg>
